<?xml version="1.0" encoding="utf-8"?>
<!-- Generator: Adobe Illustrator 22.0.0, SVG Export Plug-In . SVG Version: 6.00 Build 0)  -->
<svg version="1.1" id="Layer_1" xmlns="http://www.w3.org/2000/svg" xmlns:xlink="http://www.w3.org/1999/xlink" x="0px" y="0px"
	 viewBox="0 0 170 100" style="enable-background:new 0 0 170 100;" xml:space="preserve">
<style type="text/css">
	.st0{fill:#ED1C7C;}
	.st1{fill:#FFFFFF;}
	.st2{fill:#4555A5;}
</style>
<g>
	<path class="st0" d="M61.5,73.9L12.3,55.3l13.5-36.5L98,37.4v0C98,57.5,95.3,71,61.5,73.9z"/>
	<circle class="st1" cx="86.7" cy="64.9" r="4.8"/>
	<circle class="st0" cx="86.6" cy="64.9" r="3.4"/>
	<g>
		<path class="st2" d="M83.7,35.9c-1.2,1-2.3,2-3.2,3.1c-0.9,1.1-1.6,2-2,2.8c-0.4,0.8-0.6,1.5-0.4,2c0.1,0.5,0.6,0.7,1.5,0.6
			c-0.1,0.5-0.4,0.8-0.9,0.9c-0.5,0.1-1.1,0.1-1.6-0.1c-0.6-0.2-1.1-0.6-1.5-1.1c-0.4-0.5-0.6-1.2-0.6-2c0-0.7,0.3-1.5,0.8-2.4
			c0.5-0.9,1.2-1.7,2-2.6c0.8-0.9,1.7-1.8,2.7-2.6c1-0.8,2.1-1.6,3.1-2.2c1.1-0.6,2.2-1.1,3.2-1.5c1.1-0.4,2.1-0.5,3-0.5
			c0.7,0,1.4,0.3,2.1,0.7c0.7,0.4,1.3,0.9,1.7,1.4c0.5,0.6,0.8,1.2,1,1.9c0.2,0.7,0.2,1.3-0.1,1.9c-0.2,0.6-0.6,1.2-0.9,1.7
			c-0.4,0.6-0.8,1.1-1.2,1.5c-0.4,0.5-0.9,0.9-1.3,1.3c-0.4,0.4-0.8,0.7-1.1,0.9c0.7,0.1,1.4,0.3,2,0.8c0.7,0.5,1.2,1,1.6,1.7
			c0.9-0.3,1.7-0.6,2.4-0.8c0.7-0.3,1.5-0.4,2.3-0.5c0.1,0,0.2,0.1,0.3,0.3c0.1,0.2,0.1,0.4,0.1,0.7c0,0.3-0.1,0.5-0.2,0.8
			c-0.1,0.2-0.3,0.4-0.5,0.4c-0.8,0.2-1.5,0.4-2.2,0.6c-0.7,0.3-1.3,0.5-1.8,0.7c-0.1,1.1-0.5,2.3-1.1,3.6c-0.6,1.2-1.4,2.5-2.3,3.7
			c-0.9,1.2-2,2.4-3.1,3.5c-1.2,1.1-2.4,2-3.7,2.8c-1.2,0.8-2.3,1.2-3.3,1.4c-1,0.1-1.8,0-2.3-0.4c-0.6-0.4-0.8-1-0.8-1.8
			c0-0.8,0.3-1.8,1.1-2.9c0.7-1,1.5-2,2.5-3c1-1,2-2,3.1-2.9c1.1-0.9,2.2-1.8,3.3-2.5c1.1-0.8,2.1-1.4,3-1.9c0,0,0-0.1,0.1-0.3
			c0-0.2,0-0.3,0-0.5c0-0.2-0.1-0.4-0.2-0.6c-0.1-0.2-0.2-0.3-0.4-0.4c-0.4-0.1-0.8-0.1-1.4,0.1c-0.5,0.2-1.1,0.5-1.7,0.9
			c-0.6,0.4-1.2,0.9-1.8,1.5c-0.6,0.6-1.2,1.1-1.7,1.7c-0.5,0.5-1,1-1.4,1.5c-0.4,0.5-0.7,0.8-0.8,1.1c-0.3,0.4-0.6,0.6-0.9,0.6
			c-0.3,0-0.6-0.1-0.8-0.2c-0.3-0.2-0.6-0.4-0.8-0.7c-0.2-0.3-0.2-0.6-0.1-1c0.3-0.8,0.6-1.8,1.1-3.1c0.5-1.2,0.9-2.5,1.5-3.8
			c0.5-1.3,1-2.5,1.5-3.7C82.9,37.6,83.4,36.7,83.7,35.9z M80.2,58.4c0.4-0.2,0.8-0.5,1.4-0.9c0.6-0.4,1.2-0.9,1.8-1.5
			c0.6-0.6,1.3-1.2,1.9-1.9c0.7-0.7,1.3-1.3,1.8-2c0.6-0.7,1-1.3,1.4-1.8c0.4-0.6,0.6-1,0.8-1.4c-0.7,0.4-1.5,1.1-2.5,1.8
			c-1,0.8-1.9,1.6-2.8,2.5c-0.9,0.9-1.7,1.8-2.4,2.7C80.8,56.9,80.4,57.7,80.2,58.4z M83.6,44.3c0.3-0.3,0.7-0.8,1.4-1.4
			c0.6-0.6,1.3-1.3,2.1-2c0.7-0.8,1.5-1.5,2.2-2.4c0.7-0.8,1.3-1.6,1.8-2.4c0.5-0.7,0.8-1.4,0.9-2c0.1-0.6,0-1-0.5-1.3
			c-0.2-0.1-0.5-0.2-1-0.1c-0.4,0.1-0.9,0.2-1.5,0.4c-0.5,0.2-1.1,0.4-1.7,0.7c-0.6,0.3-1.1,0.6-1.6,0.9c0.1,0,0.3,0.1,0.5,0.2
			c0.2,0.1,0.4,0.2,0.6,0.4c0.2,0.2,0.3,0.3,0.4,0.5c0.1,0.2,0.1,0.4,0,0.6c-0.3,0.6-0.6,1.2-0.9,1.9c-0.3,0.7-0.6,1.4-0.9,2.1
			c-0.3,0.7-0.6,1.4-0.9,2.1C84.1,43.1,83.8,43.7,83.6,44.3z"/>
		<path class="st2" d="M125.1,59.2c-0.6,0.5-1.3,0.8-2.1,0.9c-0.8,0.1-1.5-0.1-2.1-0.6c-0.6-0.4-1.1-1.1-1.5-2
			c-0.4-0.9-0.5-2-0.3-3.4c0.1-1.2,0.4-2.5,0.6-3.8c0.3-1.3,0.6-2.6,0.9-3.9c0.3-1.2,0.6-2.3,0.9-3.3c0.3-1,0.5-1.7,0.7-2.2
			c-0.1,0.2-0.3,0.6-0.7,1.1c-0.3,0.6-0.7,1.2-1.1,2c-0.4,0.7-0.8,1.5-1.3,2.4c-0.5,0.9-0.9,1.7-1.3,2.5c-0.4,0.8-0.7,1.5-1,2.2
			c-0.3,0.7-0.5,1.2-0.5,1.5c0,0.2-0.2,0.3-0.6,0.3c-0.3,0-0.7,0-1.1-0.1c-0.4-0.1-0.8-0.3-1.1-0.5c-0.3-0.2-0.5-0.6-0.5-1.1
			c0-0.3,0-0.7,0.1-1.3c0.1-0.6,0.2-1.2,0.3-2c0.1-0.7,0.3-1.5,0.5-2.3c0.2-0.8,0.4-1.5,0.5-2.3c0.2-0.7,0.3-1.4,0.5-1.9
			c0.1-0.6,0.3-1,0.4-1.3c-0.9,1.4-1.7,2.8-2.5,4.3c-0.8,1.5-1.5,3-2.1,4.4c-0.7,1.5-1.3,2.9-1.8,4.3c-0.5,1.4-1,2.6-1.4,3.7
			c-0.1,0.3-0.4,0.4-0.8,0.4c-0.5,0-0.9-0.1-1.4-0.3c-0.5-0.2-0.9-0.5-1.2-0.9c-0.3-0.4-0.4-0.9-0.2-1.4c0.5-1.3,1-2.5,1.4-3.5
			c0.4-1.1,0.9-2.3,1.3-3.6c0.5-1.3,0.9-2.7,1.4-4.1c0.5-1.4,0.9-2.8,1.2-4.1c0.3-1.3,0.6-2.5,0.7-3.6c0.1-1,0.1-1.9,0-2.5
			c-0.2-0.6-0.5-0.9-1-0.9c-0.6,0-1.2,0.3-1.8,0.8c-0.7,0.5-1.3,1.2-1.9,2.1c-0.6,0.9-1.2,1.9-1.8,3c-0.6,1.1-1.1,2.2-1.4,3.4
			c-0.4,1.1-0.7,2.2-0.8,3.3c-0.2,1.1-0.1,2,0.1,2.8c0.2,0.6,0.5,1,1.1,1.2c0.6,0.2,1.1,0.1,1.8-0.3c-0.1,0.4-0.3,0.7-0.8,0.9
			c-0.4,0.2-0.9,0.4-1.4,0.5c-0.5,0.1-1.1,0-1.6-0.1c-0.6-0.1-1.1-0.4-1.5-0.8c-0.4-0.4-0.7-1-0.9-1.7c-0.2-0.7-0.2-1.6,0-2.7
			c0.3-1.5,0.8-3.2,1.5-4.9c0.7-1.7,1.6-3.2,2.6-4.6c1-1.4,2.2-2.5,3.4-3.4c1.3-0.9,2.6-1.4,4-1.4c1,0,1.8,0.3,2.3,0.8
			c0.6,0.5,0.9,1.2,1.1,2c0.2,0.8,0.2,1.7,0.2,2.7c-0.1,1-0.2,2-0.4,3.1c-0.2,1-0.5,2-0.7,2.9c-0.3,0.9-0.5,1.7-0.7,2.3
			c0.4-0.8,0.9-1.7,1.5-2.8c0.6-1.1,1.3-2.3,1.9-3.4c0.7-1.1,1.3-2.2,1.9-3.1c0.6-1,1.1-1.7,1.4-2.1c0.2-0.2,0.5-0.3,0.9-0.2
			c0.4,0.1,0.8,0.3,1.2,0.6c0.4,0.3,0.7,0.6,0.9,0.9c0.2,0.4,0.3,0.6,0.1,0.9c-0.6,1-1.1,2.1-1.5,3.3c-0.4,1.2-0.8,2.3-1.1,3.4
			c-0.3,1.1-0.6,2.1-0.8,2.9c-0.2,0.9-0.3,1.5-0.4,1.8c0.1-0.3,0.4-0.8,0.8-1.6c0.4-0.8,0.9-1.7,1.5-2.7c0.6-1,1.2-2.2,1.9-3.3
			c0.7-1.2,1.3-2.3,2-3.3c0.7-1,1.3-2,1.8-2.8c0.6-0.8,1-1.4,1.4-1.7c0.2-0.2,0.4-0.2,0.8-0.1c0.4,0.1,0.7,0.3,1.1,0.5
			c0.4,0.2,0.6,0.5,0.9,0.8c0.2,0.3,0.3,0.6,0.1,0.8c-0.4,0.6-0.8,1.5-1.3,2.5c-0.5,1.1-1,2.3-1.5,3.7c-0.5,1.4-1.1,2.9-1.6,4.4
			c-0.5,1.6-1,3.1-1.4,4.6c-0.4,1.5-0.7,3-0.9,4.3c-0.2,1.4-0.3,2.6-0.2,3.6c0.1,1,0.3,1.8,0.7,2.4
			C123.6,59.1,124.2,59.3,125.1,59.2z"/>
		<path class="st2" d="M132.9,48.6c-0.4,0.3-0.8,0.8-1.2,1.3c-0.4,0.6-0.7,1.2-1,1.8c-0.3,0.6-0.5,1.3-0.5,1.9
			c-0.1,0.6-0.1,1.2,0.1,1.6c0.2,0.5,0.5,0.8,1,1c0.5,0.2,1.2,0.2,2.2,0c0.9-0.2,1.9-0.6,2.9-1.1c1-0.5,1.9-1.1,2.8-1.8
			c0.8-0.7,1.5-1.4,2.1-2.1c0.5-0.7,0.8-1.4,0.8-2c0-0.7-0.2-1.3-0.7-1.7c-0.5-0.5-1-0.9-1.7-1.2c-0.7-0.4-1.5-0.7-2.3-1
			c-0.8-0.3-1.6-0.6-2.4-0.9c-0.8-0.3-1.4-0.7-2-1.2c-0.6-0.4-1-1-1.2-1.7c-0.3-0.9-0.2-1.9,0.3-3c0.5-1.1,1.1-2.3,2-3.4
			c0.9-1.1,1.9-2.1,3.1-3c1.2-0.9,2.4-1.6,3.6-2c1.2-0.4,2.3-0.5,3.4-0.2c1.1,0.2,1.9,0.9,2.6,2.1c0.2-0.4,0.4-0.8,0.7-1.2
			c0.3-0.4,0.5-0.9,0.8-1.3c0.3-0.4,0.5-0.8,0.8-1.1c0.2-0.3,0.4-0.5,0.6-0.6c0.2-0.1,0.6-0.1,1,0c0.5,0.2,0.9,0.4,1.3,0.7
			c0.4,0.3,0.7,0.6,0.9,1c0.2,0.4,0.2,0.6-0.1,0.8c-0.4,0.4-0.9,1-1.5,1.7c-0.6,0.7-1.1,1.6-1.7,2.5c-0.6,0.9-1.1,1.8-1.6,2.8
			c-0.5,1-0.9,1.9-1.2,2.7c-0.3,0.9-0.5,1.6-0.6,2.3c-0.1,0.6,0,1.1,0.3,1.4c-0.2,0.2-0.5,0.3-0.9,0.2c-0.4-0.1-0.7-0.2-1.1-0.5
			c-0.4-0.3-0.7-0.6-0.9-1.1c-0.2-0.4-0.3-0.9-0.3-1.5c0.1-0.7,0.2-1.4,0.5-2.2c0.3-0.8,0.5-1.6,0.8-2.4c0.3-0.8,0.5-1.6,0.6-2.3
			c0.1-0.7,0.1-1.4-0.1-2c-0.1-0.3-0.4-0.4-0.9-0.3c-0.5,0.1-1.1,0.4-1.8,0.8c-0.7,0.4-1.4,1-2.2,1.6c-0.8,0.7-1.5,1.4-2.2,2.1
			c-0.7,0.7-1.3,1.5-1.7,2.2c-0.5,0.8-0.8,1.4-0.8,2c-0.1,0.6,0.1,1.1,0.7,1.5c0.5,0.4,1.2,0.8,2,1.1c0.8,0.4,1.7,0.7,2.7,1.1
			c1,0.4,1.8,0.9,2.7,1.4c0.8,0.6,1.5,1.2,2,2c0.5,0.8,0.7,1.8,0.7,3c0,0.6-0.2,1.2-0.7,1.9c-0.4,0.7-1,1.4-1.6,2
			c-0.7,0.7-1.5,1.3-2.4,2c-0.9,0.6-1.8,1.2-2.8,1.7c-1,0.5-2,0.9-3.1,1.2c-1.1,0.3-2.1,0.5-3.1,0.6c-0.8,0-1.6,0-2.1-0.1
			c-0.6-0.1-1.1-0.3-1.5-0.5c-0.5-0.3-0.8-0.7-1-1.1c-0.2-0.4-0.3-0.9-0.3-1.5c0-0.6,0.1-1.1,0.2-1.7c0.2-0.6,0.4-1.2,0.7-1.8
			c0.5-1,1-2,1.7-2.9c0.6-0.9,1.3-1.7,2-2.3c0.1-0.1,0.3-0.1,0.4-0.1c0.2,0,0.3,0.1,0.4,0.1c0.1,0.1,0.2,0.2,0.2,0.3
			C133.1,48.5,133.1,48.6,132.9,48.6z"/>
	</g>
	<g>
		<path class="st1" d="M35.9,38.9h-7.5v5.5h6.3c0.6,0,1,0.1,1.3,0.4c0.3,0.3,0.4,0.7,0.4,1.2c0,0.5-0.1,0.9-0.4,1.2
			c-0.3,0.3-0.7,0.4-1.3,0.4h-6.3v7.1c0,0.9-0.2,1.6-0.5,2c-0.4,0.4-0.8,0.7-1.4,0.7c-0.6,0-1-0.2-1.4-0.7c-0.4-0.4-0.5-1.1-0.5-2
			V38.2c0-0.6,0.1-1.1,0.2-1.5c0.2-0.4,0.4-0.7,0.8-0.9c0.3-0.2,0.8-0.3,1.3-0.3h9c0.6,0,1.1,0.2,1.4,0.5c0.3,0.3,0.4,0.7,0.4,1.2
			c0,0.5-0.1,0.9-0.4,1.2C37,38.8,36.5,38.9,35.9,38.9z"/>
		<path class="st1" d="M53,38.9h-8.6v5.3h7.9c0.6,0,1,0.1,1.3,0.4c0.3,0.3,0.4,0.7,0.4,1.2S54,46.7,53.7,47
			c-0.3,0.3-0.7,0.5-1.3,0.5h-7.9v6.1h8.9c0.6,0,1.1,0.2,1.4,0.5c0.3,0.3,0.5,0.7,0.5,1.3c0,0.5-0.2,0.9-0.5,1.2
			c-0.3,0.3-0.8,0.5-1.4,0.5H42.9c-0.8,0-1.4-0.2-1.8-0.6c-0.4-0.4-0.5-1.1-0.5-2V38.2c0-0.6,0.1-1.1,0.2-1.5
			c0.2-0.4,0.4-0.7,0.8-0.9c0.3-0.2,0.8-0.3,1.3-0.3H53c0.6,0,1.1,0.2,1.4,0.5c0.3,0.3,0.4,0.7,0.4,1.2c0,0.5-0.1,0.9-0.4,1.2
			C54.1,38.8,53.7,38.9,53,38.9z"/>
		<path class="st1" d="M66.3,57.1h-5.8c-0.8,0-1.4-0.2-1.8-0.6c-0.4-0.4-0.5-1.1-0.5-2V38.2c0-0.9,0.2-1.6,0.5-2
			c0.4-0.4,1-0.6,1.8-0.6h6.1c0.9,0,1.7,0.1,2.3,0.2c0.7,0.1,1.3,0.4,1.8,0.7c0.4,0.3,0.8,0.7,1.2,1.2c0.3,0.5,0.6,1,0.8,1.5
			c0.2,0.6,0.3,1.2,0.3,1.8c0,2.2-0.9,3.7-2.8,4.7c2.5,0.9,3.7,2.7,3.7,5.3c0,1.2-0.3,2.3-0.8,3.2c-0.5,1-1.3,1.7-2.2,2.1
			c-0.6,0.3-1.2,0.5-2,0.6C68.1,57,67.3,57.1,66.3,57.1z M62,38.8v5.6h3.5c1,0,1.7-0.1,2.2-0.3c0.5-0.2,0.9-0.6,1.2-1.2
			c0.2-0.4,0.3-0.9,0.3-1.4c0-1.1-0.3-1.8-1-2.2c-0.7-0.4-1.7-0.5-3.1-0.5H62z M66,47.5h-4v6.3h4.1c2.6,0,3.9-1.1,3.9-3.2
			c0-1.1-0.3-1.9-1-2.4C68.3,47.8,67.3,47.5,66,47.5z"/>
	</g>
</g>
</svg>
